<svg width="530" height="177" viewBox="0 0 530 177" fill="none" xmlns="http://www.w3.org/2000/svg">
<path d="M53.4 1.2V46.9C53.4 55.3667 51.1667 61.8 46.7 66.2C42.3 70.5333 36.1 72.7 28.1 72.7C19.5 72.7 12.6667 70.3333 7.6 65.6C2.53333 60.8667 7.07805e-08 53.9667 7.07805e-08 44.9H21.9C21.9 47.7667 22.3667 49.8 23.3 51C24.2333 52.1333 25.5 52.7 27.1 52.7C28.4333 52.7 29.4667 52.2667 30.2 51.4C30.9333 50.5333 31.3 49.0333 31.3 46.9V1.2H53.4ZM89.1844 18.9V27.6H111.184V44.3H89.1844V54.3H114.184V72H66.9844V1.2H114.184V18.9H89.1844ZM154.251 72.7C145.784 72.7 138.784 70.7333 133.251 66.8C127.784 62.8 124.817 56.9667 124.351 49.3H147.951C148.284 53.3667 150.084 55.4 153.351 55.4C154.551 55.4 155.551 55.1333 156.351 54.6C157.217 54 157.651 53.1 157.651 51.9C157.651 50.2333 156.751 48.9 154.951 47.9C153.151 46.8333 150.351 45.6333 146.551 44.3C142.017 42.7 138.251 41.1333 135.251 39.6C132.317 38.0667 129.784 35.8333 127.651 32.9C125.517 29.9667 124.484 26.2 124.551 21.6C124.551 17 125.717 13.1 128.051 9.89999C130.451 6.63333 133.684 4.16666 137.751 2.49999C141.884 0.83333 146.517 -2.86102e-06 151.651 -2.86102e-06C160.317 -2.86102e-06 167.184 2 172.251 6C177.384 10 180.084 15.6333 180.351 22.9H156.451C156.384 20.9 155.884 19.4667 154.951 18.6C154.017 17.7333 152.884 17.3 151.551 17.3C150.617 17.3 149.851 17.6333 149.251 18.3C148.651 18.9 148.351 19.7667 148.351 20.9C148.351 22.5 149.217 23.8333 150.951 24.9C152.751 25.9 155.584 27.1333 159.451 28.6C163.917 30.2667 167.584 31.8667 170.451 33.4C173.384 34.9333 175.917 37.0667 178.051 39.8C180.184 42.5333 181.251 45.9667 181.251 50.1C181.251 54.4333 180.184 58.3333 178.051 61.8C175.917 65.2 172.817 67.8667 168.751 69.8C164.684 71.7333 159.851 72.7 154.251 72.7ZM220.751 72.7C212.284 72.7 205.284 70.7333 199.751 66.8C194.284 62.8 191.317 56.9667 190.851 49.3H214.451C214.784 53.3667 216.584 55.4 219.851 55.4C221.051 55.4 222.051 55.1333 222.851 54.6C223.717 54 224.151 53.1 224.151 51.9C224.151 50.2333 223.251 48.9 221.451 47.9C219.651 46.8333 216.851 45.6333 213.051 44.3C208.517 42.7 204.751 41.1333 201.751 39.6C198.817 38.0667 196.284 35.8333 194.151 32.9C192.017 29.9667 190.984 26.2 191.051 21.6C191.051 17 192.217 13.1 194.551 9.89999C196.951 6.63333 200.184 4.16666 204.251 2.49999C208.384 0.83333 213.017 -2.86102e-06 218.151 -2.86102e-06C226.817 -2.86102e-06 233.684 2 238.751 6C243.884 10 246.584 15.6333 246.851 22.9H222.951C222.884 20.9 222.384 19.4667 221.451 18.6C220.517 17.7333 219.384 17.3 218.051 17.3C217.117 17.3 216.351 17.6333 215.751 18.3C215.151 18.9 214.851 19.7667 214.851 20.9C214.851 22.5 215.717 23.8333 217.451 24.9C219.251 25.9 222.084 27.1333 225.951 28.6C230.417 30.2667 234.084 31.8667 236.951 33.4C239.884 34.9333 242.417 37.0667 244.551 39.8C246.684 42.5333 247.751 45.9667 247.751 50.1C247.751 54.4333 246.684 58.3333 244.551 61.8C242.417 65.2 239.317 67.8667 235.251 69.8C231.184 71.7333 226.351 72.7 220.751 72.7ZM281.751 1.2V72H259.551V1.2H281.751ZM293.777 36.5C293.777 29.5 295.177 23.2667 297.977 17.8C300.844 12.3333 304.911 8.1 310.177 5.1C315.444 2.03333 321.644 0.499997 328.777 0.499997C334.911 0.499997 340.377 1.66666 345.177 4C350.044 6.26666 353.977 9.5 356.977 13.7C360.044 17.9 362.077 22.8 363.077 28.4H339.677C338.611 26.0667 337.077 24.2667 335.077 23C333.144 21.6667 330.911 21 328.377 21C324.644 21 321.677 22.4 319.477 25.2C317.344 28 316.277 31.7667 316.277 36.5C316.277 41.2333 317.344 45 319.477 47.8C321.677 50.6 324.644 52 328.377 52C330.911 52 333.144 51.3667 335.077 50.1C337.077 48.7667 338.611 46.9333 339.677 44.6H363.077C362.077 50.2 360.044 55.1 356.977 59.3C353.977 63.5 350.044 66.7667 345.177 69.1C340.377 71.3667 334.911 72.5 328.777 72.5C321.644 72.5 315.444 71 310.177 68C304.911 64.9333 300.844 60.6667 297.977 55.2C295.177 49.7333 293.777 43.5 293.777 36.5ZM420.47 61.3H396.87L393.37 72H370.07L395.97 1.2H421.57L447.37 72H423.97L420.47 61.3ZM415.07 44.6L408.67 24.9L402.27 44.6H415.07ZM174.461 106.2V177H152.261V149.4H131.161V177H108.961V106.2H131.161V131.7H152.261V106.2H174.461ZM233.849 166.3H210.249L206.749 177H183.449L209.349 106.2H234.949L260.749 177H237.349L233.849 166.3ZM228.449 149.6L222.049 129.9L215.649 149.6H228.449ZM305.393 177L292.093 151.6H291.993V177H269.793V106.2H302.793C308.526 106.2 313.426 107.233 317.493 109.3C321.56 111.3 324.593 114.067 326.593 117.6C328.66 121.067 329.693 125 329.693 129.4C329.693 134.133 328.36 138.333 325.693 142C323.093 145.667 319.326 148.3 314.393 149.9L329.793 177H305.393ZM291.993 136.8H300.793C302.926 136.8 304.526 136.333 305.593 135.4C306.66 134.4 307.193 132.867 307.193 130.8C307.193 128.933 306.626 127.467 305.493 126.4C304.426 125.333 302.86 124.8 300.793 124.8H291.993V136.8ZM398.685 130.5C398.685 134.967 397.652 139.033 395.585 142.7C393.518 146.3 390.452 149.167 386.385 151.3C382.385 153.433 377.518 154.5 371.785 154.5H362.985V177H340.785V106.2H371.785C380.452 106.2 387.085 108.4 391.685 112.8C396.352 117.2 398.685 123.1 398.685 130.5ZM369.285 137C373.885 137 376.185 134.833 376.185 130.5C376.185 126.167 373.885 124 369.285 124H362.985V137H369.285ZM431.927 123.9V132.6H453.927V149.3H431.927V159.3H456.927V177H409.727V106.2H456.927V123.9H431.927ZM504.893 177L491.593 151.6H491.493V177H469.293V106.2H502.293C508.026 106.2 512.926 107.233 516.993 109.3C521.06 111.3 524.093 114.067 526.093 117.6C528.16 121.067 529.193 125 529.193 129.4C529.193 134.133 527.86 138.333 525.193 142C522.593 145.667 518.826 148.3 513.893 149.9L529.293 177H504.893ZM491.493 136.8H500.293C502.426 136.8 504.026 136.333 505.093 135.4C506.16 134.4 506.693 132.867 506.693 130.8C506.693 128.933 506.126 127.467 504.993 126.4C503.926 125.333 502.36 124.8 500.293 124.8H491.493V136.8Z" fill="#18110C"/>
</svg>
