<svg width="202" height="59" viewBox="0 0 202 59" fill="none" xmlns="http://www.w3.org/2000/svg">
<path d="M24.4706 0.647057V2.52941H26.3529V23.2353H24.4706V25.1176H22.5882V27H3.76471V25.1176H1.88235V23.2353H0V13.8235H1.88235V11.9412H7.52941V13.8235H9.41177V19.4706H13.1765V2.52941H15.0588V6.29412H16.9412V4.41176H18.8235V2.52941H15.0588V0.647057H24.4706ZM54.2756 0.647057V2.52941H56.1579V4.41176H54.2756V6.29412H42.9815V10.0588H54.2756V11.9412H56.1579V13.8235H54.2756V15.7059H42.9815V19.4706H54.2756V21.3529H56.1579V25.1176H54.2756V27H31.6874V25.1176H29.805V2.52941H31.6874V6.29412H33.5697V4.41176H35.4521V2.52941H31.6874V0.647057H54.2756ZM84.0806 0.647057V2.52941H85.9629V6.29412H84.0806V8.17647H72.7865V10.0588H84.0806V11.9412H85.9629V23.2353H84.0806V25.1176H82.1982V27H61.4924V25.1176H59.61V19.4706H61.4924V17.5882H76.5512V15.7059H61.4924V13.8235H59.61V4.41176H61.4924V6.29412H63.3747V4.41176H65.2571V2.52941H63.3747V0.647057H84.0806ZM113.886 0.647057V2.52941H115.768V6.29412H113.886V8.17647H102.591V10.0588H113.886V11.9412H115.768V23.2353H113.886V25.1176H112.003V27H91.2974V25.1176H89.415V19.4706H91.2974V17.5882H106.356V15.7059H91.2974V13.8235H89.415V4.41176H91.2974V6.29412H93.1797V4.41176H95.0621V2.52941H93.1797V0.647057H113.886ZM130.514 0.647057V2.52941H132.396V25.1176H130.514V27H121.102V25.1176H119.22V2.52941H121.102V6.29412H122.985V4.41176H124.867V2.52941H121.102V0.647057H130.514ZM160.308 0.647057V2.52941H162.19V4.41176H160.308V6.29412H149.014V19.4706H160.308V21.3529H162.19V25.1176H160.308V27H139.602V25.1176H137.72V23.2353H135.837V4.41176H137.72V6.29412H139.602V4.41176H141.485V2.52941H139.602V0.647057H160.308ZM190.113 4.41176V6.29412H191.995V25.1176H190.113V27H186.348V25.1176H184.466V13.8235H178.819V25.1176H176.937V27H167.525V25.1176H165.643V4.41176H167.525V6.29412H169.407V4.41176H171.29V2.52941H169.407V0.647057H186.348V2.52941H188.231V4.41176H190.113ZM178.819 6.29412V10.0588H184.466V6.29412H178.819ZM50.4943 34.5294H52.3767V57.1176H50.4943V59H44.8473V57.1176H42.9649V47.7059H39.2002V57.1176H37.3179V59H27.9061V57.1176H26.0238V34.5294H27.9061V38.2941H29.7885V36.4118H31.6708V34.5294H27.9061V32.6471H37.3179V34.5294H39.2002V42.0588H42.9649V34.5294H44.8473V32.6471H50.4943V34.5294ZM80.2993 36.4118V38.2941H82.1817V57.1176H80.2993V59H76.5346V57.1176H74.6523V45.8235H69.0052V57.1176H67.1229V59H57.7111V57.1176H55.8288V36.4118H57.7111V38.2941H59.5935V36.4118H61.4758V34.5294H59.5935V32.6471H76.5346V34.5294H78.417V36.4118H80.2993ZM69.0052 38.2941V42.0588H74.6523V38.2941H69.0052ZM110.104 34.5294V36.4118H111.987V43.9412H110.104V45.8235H108.222V47.7059H110.104V49.5882H111.987V57.1176H110.104V59H106.34V57.1176H104.457V55.2353H102.575V53.3529H100.693V51.4706H98.8102V57.1176H96.9279V59H87.5161V57.1176H85.6338V34.5294H87.5161V38.2941H89.3985V36.4118H91.2808V34.5294H87.5161V32.6471H108.222V34.5294H110.104ZM104.457 42.0588V38.2941H98.8102V42.0588H104.457ZM139.909 36.4118H141.792V47.7059H139.909V49.5882H138.027V51.4706H128.615V57.1176H126.733V59H117.321V57.1176H115.439V34.5294H117.321V38.2941H119.203V36.4118H121.086V34.5294H117.321V32.6471H138.027V34.5294H139.909V36.4118ZM128.615 38.2941V45.8235H132.38V38.2941H128.615ZM169.714 32.6471V34.5294H171.597V36.4118H169.714V38.2941H158.42V42.0588H169.714V43.9412H171.597V45.8235H169.714V47.7059H158.42V51.4706H169.714V53.3529H171.597V57.1176H169.714V59H147.126V57.1176H145.244V34.5294H147.126V38.2941H149.008V36.4118H150.891V34.5294H147.126V32.6471H169.714ZM199.519 34.5294V36.4118H201.402V43.9412H199.519V45.8235H197.637V47.7059H199.519V49.5882H201.402V57.1176H199.519V59H195.755V57.1176H193.872V55.2353H191.99V53.3529H190.108V51.4706H188.225V57.1176H186.343V59H176.931V57.1176H175.049V34.5294H176.931V38.2941H178.813V36.4118H180.696V34.5294H176.931V32.6471H197.637V34.5294H199.519ZM193.872 42.0588V38.2941H188.225V42.0588H193.872Z" fill="#F8EDDF"/>
</svg>
